<svg id="Capa_1" enable-background="new 0 0 512 512" height="512" viewBox="0 0 512 512" width="512" xmlns="http://www.w3.org/2000/svg"><path d="m82.624 146.011-75.124 180.872 35.515-.034-35.515 177.648 177.648-35.515-.034 35.514 180.872-75.124c27.14-10.658 52.583-26.938 74.517-48.873 85.33-85.33 85.33-223.676 0-309.006s-223.676-85.33-309.006 0c-21.934 21.935-38.215 47.378-48.873 74.518z" fill="#fbbd61"/><path d="m110.548 156.977-.107.272-57.978 139.591 27.15-.026-33.875 169.445 169.445-33.875-.026 27.15 139.322-57.866.541-.22z" fill="#f9e167"/><path d="m419.29 92.707c-33.66-33.66-76.88-51.93-120.92-54.8 0 .05.01.11.01.16l75.48 275.79 100.23-100.23c-2.87-44.04-21.14-87.26-54.8-120.92z" fill="#ff4f4d"/><path d="m444.19 214.037c-4.93-93.66-67.37-168.77-145.81-175.97l-200.47 200.3c2.87 44.04 21.14 87.26 54.8 120.92s76.88 51.93 120.92 54.8z" fill="#fe7453"/><path d="m298.37 37.907c0 .05.01.11.01.16l-5.905 5.905-6.475-6.475c4.13 0 8.25.13 12.37.41z" fill="#db3f3d"/><path d="m298.38 38.067c-4.09-.38-8.22-.57-12.38-.57-48.24 0-96.48 18.4-133.29 55.21-39.95 39.95-58.22 93.38-54.8 145.66 52.28 3.42 105.71-14.84 145.66-54.8 39.92-39.91 58.18-93.27 54.81-145.5z" fill="#ff4f4d"/><path d="m474.09 213.627c-9.96-.65-19.96-.52-29.9.41l-158.19 200.46c48.24 0 96.48-18.4 133.29-55.21 39.95-39.95 58.22-93.38 54.8-145.66z" fill="#db3f3d"/><path d="m444.19 214.037c.2 3.96.31 7.94.31 11.96 0 104.11-70.96 188.5-158.5 188.5-4.13 0-8.25-.13-12.37-.41-3.42-52.28 14.84-105.71 54.8-145.66 32.34-32.35 73.51-50.47 115.76-54.39z" fill="#ff4f4d"/><path d="m147.407 364.589c38.21 38.21 88.401 57.315 138.593 57.315s100.383-19.105 138.594-57.315c76.42-76.42 76.42-200.765 0-277.186-76.422-76.42-200.767-76.42-277.187 0-76.42 76.421-76.42 200.766 0 277.186zm-41.285-118.387c1.374.029 2.748.067 4.12.067 49.344-.001 96.958-18.618 133.22-52.204l31.932 31.932-122.567 122.567c-26.309-28.53-42.484-64.117-46.705-102.362zm147.945-62.745c34.498-37.247 53.189-86.467 52.15-137.24 37.075 4.133 73.109 19.671 102.349 46.609l-122.566 122.564zm31.933 53.146 31.933 31.933c-34.498 37.247-53.189 86.467-52.15 137.241-37.076-4.132-73.105-19.669-102.349-46.61zm-5.186 170.227c-1.32-47.179 15.819-93 47.734-127.679l80.017 80.017c-35.897 33.071-82.021 48.961-127.751 47.662zm138.358-58.269-80.017-80.017c34.677-31.915 80.497-49.051 127.679-47.733 1.299 45.729-14.591 91.853-47.662 127.75zm46.609-142.78c-50.774-1.041-99.995 17.651-137.241 52.148l-31.933-31.933 122.565-122.564c26.941 29.244 42.478 65.272 46.609 102.349zm-179.781-160.699c1.729 0 3.458.033 5.186.082 1.32 47.179-15.818 93-47.733 127.679l-80.017-80.017c34.543-31.825 78.543-47.744 122.564-47.744zm-133.173 58.347 80.022 80.022c-33.435 30.771-77.225 47.818-122.608 47.817-1.717 0-3.439-.035-5.161-.084-.048-1.726-.079-3.454-.079-5.188-.001-45.837 16.933-89.067 47.826-122.567z"/><path d="m445.807 66.19c-40.774-40.773-94.951-64.237-152.555-66.071-57.327-1.822-112.632 17.881-155.711 55.487-3.121 2.724-3.442 7.462-.718 10.582 2.725 3.121 7.463 3.442 10.582.718 83.203-72.633 209.619-68.286 287.794 9.891 82.269 82.269 82.269 216.13 0 298.399-20.692 20.692-44.901 36.571-71.955 47.195-.046.018-.091.036-.136.055l-170.484 70.81.024-24.267c.002-2.248-1.004-4.378-2.742-5.805-1.737-1.426-4.022-1.998-6.228-1.557l-166.618 33.31 33.31-166.618c.441-2.205-.131-4.49-1.557-6.228-1.425-1.736-3.552-2.742-5.798-2.742-.007 0-24.274.023-24.274.023l70.81-170.484c.019-.045.037-.09.055-.136 8.811-22.438 21.363-43.079 37.308-61.349 2.724-3.121 2.401-7.859-.719-10.583-3.121-2.723-7.858-2.401-10.583.719-17.063 19.551-30.5 41.642-39.941 65.659l-75.097 180.808c-.962 2.316-.703 4.959.69 7.043 1.392 2.083 3.731 3.333 6.236 3.333.007 0 26.365-.025 26.365-.025l-33.719 168.669c-.492 2.459.278 5 2.051 6.773 1.42 1.42 3.334 2.197 5.303 2.197.489 0 .981-.048 1.47-.146l168.669-33.72-.026 26.358c-.002 2.507 1.249 4.85 3.333 6.243 2.085 1.394 4.729 1.653 7.044.69l180.807-75.097c28.958-11.382 54.866-28.38 77.01-50.523 42.685-42.684 66.193-99.438 66.193-159.804s-23.508-117.121-66.193-159.807z"/></svg>